<svg width="8" height="11" viewBox="0 0 8 11" fill="none" xmlns="http://www.w3.org/2000/svg">
<path d="M4.89148 1.5624L4.89148 8.30805L6.16894 7.03059C6.45704 6.74248 6.94259 6.74248 7.22997 7.03059C7.37402 7.17463 7.44569 7.37208 7.44569 7.57024C7.44569 7.7684 7.37401 7.94828 7.22997 8.10989L4.6758 10.6648C4.38769 10.9529 3.90215 10.9529 3.61477 10.6648L1.04225 8.09226C0.754146 7.80416 0.754146 7.31862 1.04225 7.03123C1.33035 6.74313 1.81589 6.74313 2.10328 7.03123L3.38074 8.3087L3.38074 1.56305C3.38074 1.14917 3.72223 0.807681 4.13611 0.807681C4.54999 0.806978 4.89148 1.14852 4.89148 1.5624Z" fill="#333333"/>
</svg>
