<svg width="39" height="39" viewBox="0 0 39 39" fill="none" xmlns="http://www.w3.org/2000/svg">
<g clip-path="url(#clip0_1_2800)">
<path fill-rule="evenodd" clip-rule="evenodd" d="M3.48556 8.26751C2.92135 9.06683 2.41573 9.91045 1.97496 10.7921C3.6775 11.3132 5.55906 11.4106 7.62706 10.9395C10.9585 10.1806 14.8099 7.93787 19.204 3.53436C20.3979 2.3378 21.575 1.25538 22.7336 0.279092C21.8037 0.120284 20.8514 0.0273175 19.8816 0.00515643C19.7495 0.135083 19.6172 0.266441 19.4847 0.399244C15.018 4.87551 11.0383 7.2206 7.5285 8.02015C6.0969 8.34627 4.74946 8.41387 3.48556 8.26751ZM18.8927 0.00716497C12.8527 0.169808 7.49784 3.07895 4.03174 7.53101C5.11495 7.61534 6.26042 7.53425 7.46962 7.25879C10.7622 6.50874 14.5625 4.30937 18.8927 0.00716497ZM0.733175 13.9347C0.979803 13.105 1.28016 12.2984 1.63021 11.519C3.4479 12.0906 5.4657 12.2066 7.68594 11.7009C11.1958 10.9013 15.1755 8.55624 19.6421 4.07997C20.9944 2.72476 22.3228 1.5199 23.625 0.452864C24.576 0.661502 25.5011 0.93956 26.3946 1.28146C24.1277 2.83517 21.7781 4.79091 19.3591 7.21509C16.4057 10.1748 13.6975 12.1584 11.2275 13.3714H10.3274C10.1223 13.3714 9.956 13.5377 9.956 13.7428V13.9372C9.2082 14.2349 8.48366 14.4605 7.78217 14.6203C5.13139 15.2241 2.78694 14.8939 0.733175 13.9347ZM0.518801 14.7153C0.315715 15.5204 0.162697 16.3454 0.0632512 17.1868C2.30806 18.4667 4.92586 18.9875 7.93961 18.301C8.59176 18.1524 9.26383 17.947 9.956 17.6796V14.7301C9.23293 15.0094 8.52799 15.2251 7.84105 15.3816C5.09126 16.008 2.65197 15.6806 0.518801 14.7153ZM12.761 13.3714L16.8423 13.3714C17.7103 12.6358 18.6017 11.8126 19.5165 10.8958C23.1084 7.29618 26.5474 4.72941 29.7898 2.97807C28.9626 2.4582 28.0937 1.99873 27.1891 1.60583C24.8209 3.1772 22.3518 5.20072 19.7973 7.76071C17.3007 10.2626 14.9563 12.0988 12.761 13.3714ZM-0.0725183 19.5C-0.0725183 19.0133 -0.0546908 18.5308 -0.0196532 18.0531C2.27415 19.2774 4.94486 19.758 7.99848 19.0623C8.63548 18.9172 9.28795 18.7212 9.956 18.4708V20.4285C9.956 20.6337 10.1223 20.7999 10.3274 20.7999H11.4037C10.2491 21.3556 9.1469 21.7424 8.09638 21.9817C4.96773 22.6944 2.2658 22.1059 -0.0351051 20.7179C-0.059925 20.3151 -0.0725183 19.909 -0.0725183 19.5ZM20.9105 13.3714H17.9128C18.5818 12.7778 19.2624 12.1352 19.9547 11.4414C23.6584 7.72977 27.1826 5.14586 30.4802 3.43266C31.2994 3.99728 32.0733 4.62294 32.7954 5.30307C29.1031 6.82212 25.1174 9.39156 20.9105 13.3714ZM23.6989 38.5307C28.1729 37.5309 32.0668 34.9937 34.797 31.5025C31.3643 32.7959 27.6446 35.0271 23.6989 38.5289V38.5307ZM23.6989 37.5959C27.9218 33.9244 31.905 31.6658 35.5722 30.4395C36.3119 29.35 36.9442 28.1816 37.4539 26.9497C33.3153 27.9569 28.6891 30.3191 23.6989 34.7128V37.5959ZM23.6989 33.7826V30.894C29.1654 26.1203 34.1923 23.7834 38.6161 22.99C38.423 24.0586 38.1428 25.0969 37.7832 26.0974C33.5285 27.0535 28.7889 29.3923 23.6989 33.7826ZM16.2703 33.7535V36.6655C15.4857 37.2579 14.7213 37.777 13.977 38.228C12.8157 37.8906 11.6991 37.4481 10.6382 36.9115C12.4054 36.2619 14.2822 35.231 16.2703 33.7535ZM16.2703 32.8669C13.9155 34.6675 11.7415 35.8107 9.74402 36.4295C8.5778 35.761 7.48724 34.9755 6.48837 34.0889C7.17767 34.0516 7.88897 33.9523 8.62236 33.7853C10.9613 33.2525 13.509 32.0333 16.2703 29.9544V32.8669ZM3.06114 30.1058C3.81739 31.2704 4.69457 32.3492 5.67489 33.3245C6.59414 33.3479 7.55672 33.2533 8.56349 33.0239C10.8788 32.4965 13.4452 31.2524 16.2703 29.0644V26.1545C13.4483 28.3061 10.8484 29.5616 8.46504 30.1045C6.5068 30.5506 4.70602 30.513 3.06114 30.1058ZM2.4488 29.0972C1.84747 28.0357 1.34281 26.9122 0.9468 25.7387C3.0898 26.7186 5.54287 27.0543 8.31048 26.4238C10.7372 25.871 13.3886 24.5793 16.2703 22.3552V25.2611C13.383 27.5253 10.7644 28.806 8.40616 29.3432C6.21378 29.8426 4.23094 29.7031 2.4488 29.0972ZM0.0486616 21.6862C0.163157 22.7125 0.357307 23.7147 0.624787 24.6866C2.81341 25.8649 5.34885 26.3237 8.2516 25.6625C10.6518 25.1157 13.3219 23.7987 16.2703 21.4584V21.1714C16.2703 20.9662 16.104 20.7999 15.8989 20.7999H12.9587C11.2693 21.7663 9.66858 22.3983 8.15526 22.7431C5.0623 23.4477 2.36218 22.9455 0.0486616 21.6862ZM21.9348 13.3714C26.0017 9.63657 29.8352 7.25422 33.3697 5.86674C34.0639 6.57656 34.7043 7.33919 35.2844 8.14803C32.2063 9.08547 28.8976 10.7492 25.405 13.3714H21.9348ZM35.7299 8.79636C32.8932 9.61454 29.8395 11.0706 26.6066 13.3714H29.6417C29.8468 13.3714 30.0131 13.5377 30.0131 13.7428V14.153C32.5176 12.7728 34.9062 11.8794 37.1587 11.3736C36.7465 10.4757 36.2682 9.61458 35.7299 8.79636ZM30.0131 14.98V17.9209C32.9694 16.2709 35.7653 15.2994 38.3682 14.8441C38.1354 13.8937 37.8329 12.9707 37.4665 12.0808C35.1351 12.576 32.643 13.5005 30.0131 14.98ZM23.6989 26.1536V23.2611C24.7579 22.3515 25.8001 21.5333 26.8244 20.7999H29.6417C29.8468 20.7999 30.0131 20.6337 30.0131 20.4285V18.7498C33.0475 17.0208 35.8998 16.0308 38.535 15.5881C38.7255 16.5237 38.8491 17.4837 38.9004 18.4628C34.3722 19.1742 29.2465 21.4467 23.6989 26.1536ZM23.6989 22.3392C24.3477 21.7933 24.9908 21.2807 25.6277 20.7999H24.0703C23.8652 20.7999 23.6989 20.9662 23.6989 21.1714V22.3392ZM23.6989 27.0783C29.2974 22.229 34.4319 19.9347 38.9257 19.2312C38.9269 19.3206 38.9275 19.4102 38.9275 19.5C38.9275 20.4144 38.8645 21.3141 38.7428 22.195C34.2494 22.9679 29.1786 25.279 23.6989 29.9666V27.0783ZM16.2703 37.5488C15.8167 37.8816 15.3689 38.1911 14.9269 38.4781C15.3691 38.5825 15.8171 38.6719 16.2703 38.7457V37.5488Z" fill="#C4C4C4"/>
<path fill-rule="evenodd" clip-rule="evenodd" d="M3.48556 8.26751C2.92135 9.06683 2.41573 9.91045 1.97496 10.7921C3.6775 11.3132 5.55906 11.4106 7.62706 10.9395C10.9585 10.1806 14.8099 7.93787 19.204 3.53436C20.3979 2.3378 21.575 1.25538 22.7336 0.279092C21.8037 0.120284 20.8514 0.0273175 19.8816 0.00515643C19.7495 0.135083 19.6172 0.266441 19.4847 0.399244C15.018 4.87551 11.0383 7.2206 7.5285 8.02015C6.0969 8.34627 4.74946 8.41387 3.48556 8.26751ZM18.8927 0.00716497C12.8527 0.169808 7.49784 3.07895 4.03174 7.53101C5.11495 7.61534 6.26042 7.53425 7.46962 7.25879C10.7622 6.50874 14.5625 4.30937 18.8927 0.00716497ZM0.733175 13.9347C0.979803 13.105 1.28016 12.2984 1.63021 11.519C3.4479 12.0906 5.4657 12.2066 7.68594 11.7009C11.1958 10.9013 15.1755 8.55624 19.6421 4.07997C20.9944 2.72476 22.3228 1.5199 23.625 0.452864C24.576 0.661502 25.5011 0.93956 26.3946 1.28146C24.1277 2.83517 21.7781 4.79091 19.3591 7.21509C16.4057 10.1748 13.6975 12.1584 11.2275 13.3714H10.3274C10.1223 13.3714 9.956 13.5377 9.956 13.7428V13.9372C9.2082 14.2349 8.48366 14.4605 7.78217 14.6203C5.13139 15.2241 2.78694 14.8939 0.733175 13.9347ZM0.518801 14.7153C0.315715 15.5204 0.162697 16.3454 0.0632512 17.1868C2.30806 18.4667 4.92586 18.9875 7.93961 18.301C8.59176 18.1524 9.26383 17.947 9.956 17.6796V14.7301C9.23293 15.0094 8.52799 15.2251 7.84105 15.3816C5.09126 16.008 2.65197 15.6806 0.518801 14.7153ZM12.761 13.3714L16.8423 13.3714C17.7103 12.6358 18.6017 11.8126 19.5165 10.8958C23.1084 7.29618 26.5474 4.72941 29.7898 2.97807C28.9626 2.4582 28.0937 1.99873 27.1891 1.60583C24.8209 3.1772 22.3518 5.20072 19.7973 7.76071C17.3007 10.2626 14.9563 12.0988 12.761 13.3714ZM-0.0725183 19.5C-0.0725183 19.0133 -0.0546908 18.5308 -0.0196532 18.0531C2.27415 19.2774 4.94486 19.758 7.99848 19.0623C8.63548 18.9172 9.28795 18.7212 9.956 18.4708V20.4285C9.956 20.6337 10.1223 20.7999 10.3274 20.7999H11.4037C10.2491 21.3556 9.1469 21.7424 8.09638 21.9817C4.96773 22.6944 2.2658 22.1059 -0.0351051 20.7179C-0.059925 20.3151 -0.0725183 19.909 -0.0725183 19.5ZM20.9105 13.3714H17.9128C18.5818 12.7778 19.2624 12.1352 19.9547 11.4414C23.6584 7.72977 27.1826 5.14586 30.4802 3.43266C31.2994 3.99728 32.0733 4.62294 32.7954 5.30307C29.1031 6.82212 25.1174 9.39156 20.9105 13.3714ZM23.6989 38.5307C28.1729 37.5309 32.0668 34.9937 34.797 31.5025C31.3643 32.7959 27.6446 35.0271 23.6989 38.5289V38.5307ZM23.6989 37.5959C27.9218 33.9244 31.905 31.6658 35.5722 30.4395C36.3119 29.35 36.9442 28.1816 37.4539 26.9497C33.3153 27.9569 28.6891 30.3191 23.6989 34.7128V37.5959ZM23.6989 33.7826V30.894C29.1654 26.1203 34.1923 23.7834 38.6161 22.99C38.423 24.0586 38.1428 25.0969 37.7832 26.0974C33.5285 27.0535 28.7889 29.3923 23.6989 33.7826ZM16.2703 33.7535V36.6655C15.4857 37.2579 14.7213 37.777 13.977 38.228C12.8157 37.8906 11.6991 37.4481 10.6382 36.9115C12.4054 36.2619 14.2822 35.231 16.2703 33.7535ZM16.2703 32.8669C13.9155 34.6675 11.7415 35.8107 9.74402 36.4295C8.5778 35.761 7.48724 34.9755 6.48837 34.0889C7.17767 34.0516 7.88897 33.9523 8.62236 33.7853C10.9613 33.2525 13.509 32.0333 16.2703 29.9544V32.8669ZM3.06114 30.1058C3.81739 31.2704 4.69457 32.3492 5.67489 33.3245C6.59414 33.3479 7.55672 33.2533 8.56349 33.0239C10.8788 32.4965 13.4452 31.2524 16.2703 29.0644V26.1545C13.4483 28.3061 10.8484 29.5616 8.46504 30.1045C6.5068 30.5506 4.70602 30.513 3.06114 30.1058ZM2.4488 29.0972C1.84747 28.0357 1.34281 26.9122 0.9468 25.7387C3.0898 26.7186 5.54287 27.0543 8.31048 26.4238C10.7372 25.871 13.3886 24.5793 16.2703 22.3552V25.2611C13.383 27.5253 10.7644 28.806 8.40616 29.3432C6.21378 29.8426 4.23094 29.7031 2.4488 29.0972ZM0.0486616 21.6862C0.163157 22.7125 0.357307 23.7147 0.624787 24.6866C2.81341 25.8649 5.34885 26.3237 8.2516 25.6625C10.6518 25.1157 13.3219 23.7987 16.2703 21.4584V21.1714C16.2703 20.9662 16.104 20.7999 15.8989 20.7999H12.9587C11.2693 21.7663 9.66858 22.3983 8.15526 22.7431C5.0623 23.4477 2.36218 22.9455 0.0486616 21.6862ZM21.9348 13.3714C26.0017 9.63657 29.8352 7.25422 33.3697 5.86674C34.0639 6.57656 34.7043 7.33919 35.2844 8.14803C32.2063 9.08547 28.8976 10.7492 25.405 13.3714H21.9348ZM35.7299 8.79636C32.8932 9.61454 29.8395 11.0706 26.6066 13.3714H29.6417C29.8468 13.3714 30.0131 13.5377 30.0131 13.7428V14.153C32.5176 12.7728 34.9062 11.8794 37.1587 11.3736C36.7465 10.4757 36.2682 9.61458 35.7299 8.79636ZM30.0131 14.98V17.9209C32.9694 16.2709 35.7653 15.2994 38.3682 14.8441C38.1354 13.8937 37.8329 12.9707 37.4665 12.0808C35.1351 12.576 32.643 13.5005 30.0131 14.98ZM23.6989 26.1536V23.2611C24.7579 22.3515 25.8001 21.5333 26.8244 20.7999H29.6417C29.8468 20.7999 30.0131 20.6337 30.0131 20.4285V18.7498C33.0475 17.0208 35.8998 16.0308 38.535 15.5881C38.7255 16.5237 38.8491 17.4837 38.9004 18.4628C34.3722 19.1742 29.2465 21.4467 23.6989 26.1536ZM23.6989 22.3392C24.3477 21.7933 24.9908 21.2807 25.6277 20.7999H24.0703C23.8652 20.7999 23.6989 20.9662 23.6989 21.1714V22.3392ZM23.6989 27.0783C29.2974 22.229 34.4319 19.9347 38.9257 19.2312C38.9269 19.3206 38.9275 19.4102 38.9275 19.5C38.9275 20.4144 38.8645 21.3141 38.7428 22.195C34.2494 22.9679 29.1786 25.279 23.6989 29.9666V27.0783ZM16.2703 37.5488C15.8167 37.8816 15.3689 38.1911 14.9269 38.4781C15.3691 38.5825 15.8171 38.6719 16.2703 38.7457V37.5488Z" fill="url(#paint0_linear_1_2800)"/>
</g>
<defs>
<linearGradient id="paint0_linear_1_2800" x1="16.0846" y1="4.82857" x2="35.9495" y2="36.3212" gradientUnits="userSpaceOnUse">
<stop offset="0.0263039" stop-color="#E3A400"/>
<stop offset="0.957096" stop-color="#FD0000"/>
</linearGradient>
<clipPath id="clip0_1_2800">
<rect width="39" height="39" rx="19.5" fill="white"/>
</clipPath>
</defs>
</svg>
