<svg width="23" height="21" viewBox="0 0 23 21" fill="none" xmlns="http://www.w3.org/2000/svg">
<path d="M17.4351 6.71374C17.2177 6.59223 16.9728 6.52844 16.7238 6.52844C16.4747 6.52844 16.2298 6.59223 16.0124 6.71374L12.7483 8.60697L10.5304 9.84168L7.2665 11.7349C7.04906 11.8563 6.80417 11.9201 6.55513 11.9201C6.3061 11.9201 6.06121 11.8563 5.84377 11.7349L3.24919 10.2533C3.03808 10.1322 2.86176 9.95876 2.73723 9.74969C2.61271 9.54062 2.54419 9.30297 2.53829 9.0597V6.13754C2.53537 5.89242 2.6002 5.65125 2.72565 5.44064C2.85109 5.23003 3.03226 5.05816 3.24919 4.94398L5.80186 3.50348C6.0193 3.38208 6.26419 3.31834 6.51323 3.31834C6.76226 3.31834 7.00715 3.38208 7.22459 3.50348L9.77727 4.94398C9.98837 5.06504 10.1647 5.23847 10.2892 5.44755C10.4137 5.65662 10.4823 5.89426 10.4882 6.13754V8.03077L12.706 6.7549V4.86167C12.7089 4.61655 12.6441 4.37538 12.5186 4.16477C12.3932 3.95416 12.212 3.78229 11.9951 3.66811L7.2665 0.951925C7.04906 0.83052 6.80417 0.766785 6.55513 0.766785C6.3061 0.766785 6.06121 0.83052 5.84377 0.951925L1.03082 3.6683C0.81392 3.78246 0.632764 3.9543 0.507324 4.16488C0.381884 4.37545 0.317032 4.61658 0.319919 4.86167V10.3356C0.316997 10.5807 0.381833 10.8219 0.507275 11.0325C0.632717 11.2431 0.813891 11.4149 1.03082 11.5291L5.84321 14.2455C6.06065 14.3669 6.30554 14.4306 6.55457 14.4306C6.80361 14.4306 7.0485 14.3669 7.26594 14.2455L10.5299 12.3934L12.7477 11.1176L16.0118 9.26548C16.2292 9.14397 16.4741 9.08018 16.7232 9.08018C16.9723 9.08018 17.2172 9.14397 17.4346 9.26548L19.9872 10.706C20.1983 10.8271 20.3746 11.0005 20.4992 11.2096C20.6237 11.4186 20.6922 11.6563 20.6981 11.8995V14.8217C20.7011 15.0668 20.6362 15.308 20.5108 15.5186C20.3853 15.7292 20.2042 15.9011 19.9872 16.0153L17.4346 17.4969C17.2171 17.6183 16.9722 17.6821 16.7232 17.6821C16.4742 17.6821 16.2293 17.6183 16.0118 17.4969L13.4592 16.0564C13.2481 15.9353 13.0717 15.7619 12.9472 15.5528C12.8227 15.3438 12.7542 15.1061 12.7483 14.8629V12.9694L10.5304 14.2453V16.1385C10.5275 16.3837 10.5924 16.6248 10.7178 16.8354C10.8432 17.046 11.0244 17.2179 11.2413 17.3321L16.0537 20.0485C16.2712 20.1699 16.5161 20.2336 16.7651 20.2336C17.0141 20.2336 17.259 20.1699 17.4765 20.0485L22.2889 17.3321C22.4999 17.211 22.6763 17.0376 22.8008 16.8285C22.9253 16.6195 22.9938 16.3818 22.9998 16.1385V10.6648C23.0027 10.4197 22.9378 10.1785 22.8124 9.96793C22.687 9.75732 22.5058 9.58545 22.2889 9.47127L17.4351 6.71374Z" fill="#8247E5"/>
</svg>
