<svg width="39" height="39" viewBox="0 0 39 39" fill="none" xmlns="http://www.w3.org/2000/svg">
<g clip-path="url(#clip0_1_2768)">
<path fill-rule="evenodd" clip-rule="evenodd" d="M3.48557 8.26755C2.92136 9.06686 2.41574 9.91048 1.97497 10.7922C3.67751 11.3132 5.55907 11.4106 7.62707 10.9396C10.9586 10.1806 14.8099 7.9379 19.204 3.53439C20.398 2.33783 21.575 1.25541 22.7336 0.279123C21.8038 0.120316 20.8514 0.027349 19.8816 0.00518799C19.7495 0.135115 19.6172 0.266473 19.4847 0.399275C15.018 4.87554 11.0383 7.22063 7.52851 8.02018C6.09691 8.3463 4.74947 8.4139 3.48557 8.26755ZM18.8927 0.00719653C12.8527 0.16984 7.49785 3.07898 4.03175 7.53104C5.11496 7.61537 6.26042 7.53429 7.46963 7.25882C10.7622 6.50877 14.5625 4.3094 18.8927 0.00719653ZM0.733184 13.9347C0.979811 13.105 1.28017 12.2985 1.63022 11.5191C3.44791 12.0907 5.46571 12.2067 7.68595 11.7009C11.1958 10.9014 15.1755 8.55627 19.6421 4.08C20.9945 2.72479 22.3228 1.51993 23.625 0.452895C24.576 0.661534 25.5011 0.939591 26.3946 1.28149C24.1277 2.8352 21.7781 4.79094 19.3591 7.21512C16.4057 10.1749 13.6975 12.1585 11.2275 13.3714H10.3275C10.1223 13.3714 9.95605 13.5377 9.95605 13.7429V13.9372C9.20823 14.2349 8.48368 14.4605 7.78218 14.6203C5.1314 15.2241 2.78695 14.8939 0.733184 13.9347ZM0.51881 14.7153C0.315724 15.5204 0.162706 16.3454 0.0632597 17.1868C2.30807 18.4667 4.92587 18.9876 7.93962 18.301C8.59178 18.1525 9.26387 17.947 9.95605 17.6797V14.7302C9.23297 15.0095 8.52801 15.2252 7.84106 15.3816C5.09127 16.0081 2.65198 15.6807 0.51881 14.7153ZM12.7609 13.3714L16.8423 13.3714C17.7103 12.6358 18.6017 11.8127 19.5165 10.8959C23.1084 7.29622 26.5474 4.72944 29.7898 2.9781C28.9626 2.45823 28.0937 1.99876 27.1891 1.60586C24.8209 3.17723 22.3518 5.20075 19.7973 7.76074C17.3007 10.2627 14.9562 12.0988 12.7609 13.3714ZM-0.0725098 19.5C-0.0725098 19.0133 -0.0546822 18.5308 -0.0196446 18.0531C2.27416 19.2774 4.94487 19.758 7.99849 19.0624C8.6355 18.9173 9.28798 18.7212 9.95605 18.4708V20.4286C9.95605 20.6337 10.1223 20.8 10.3275 20.8H11.4037C10.2491 21.3556 9.14689 21.7425 8.09639 21.9818C4.96774 22.6945 2.26581 22.106 -0.0350965 20.7179C-0.0599165 20.3151 -0.0725098 19.909 -0.0725098 19.5ZM20.9105 13.3714H17.9128C18.5818 12.7779 19.2624 12.1353 19.9547 11.4415C23.6584 7.72981 27.1826 5.14589 30.4802 3.43269C31.2994 3.99732 32.0733 4.62298 32.7954 5.3031C29.1031 6.82215 25.1174 9.3916 20.9105 13.3714ZM23.6989 38.5307C28.173 37.5309 32.0668 34.9937 34.797 31.5026C31.3643 32.796 27.6447 35.0271 23.6989 38.5289V38.5307ZM23.6989 37.5959C27.9218 33.9244 31.9051 31.6658 35.5722 30.4395C36.3119 29.35 36.9442 28.1817 37.4539 26.9498C33.3154 27.9569 28.6891 30.3191 23.6989 34.7128V37.5959ZM23.6989 33.7826V30.894C29.1654 26.1203 34.1923 23.7834 38.6161 22.99C38.423 24.0586 38.1428 25.097 37.7832 26.0974C33.5285 27.0536 28.7889 29.3923 23.6989 33.7826ZM16.2704 33.7535V36.6655C15.4858 37.2579 14.7213 37.777 13.977 38.228C12.8157 37.8906 11.6991 37.4482 10.6382 36.9116C12.4055 36.2619 14.2822 35.231 16.2704 33.7535ZM16.2704 32.8669C13.9155 34.6675 11.7416 35.8107 9.74403 36.4296C8.57781 35.7611 7.48725 34.9755 6.48838 34.089C7.17768 34.0516 7.88898 33.9524 8.62237 33.7853C10.9613 33.2525 13.509 32.0333 16.2704 29.9544V32.8669ZM3.06115 30.1058C3.8174 31.2704 4.69458 32.3492 5.6749 33.3245C6.59415 33.3479 7.55673 33.2533 8.5635 33.024C10.8788 32.4965 13.4452 31.2524 16.2704 29.0644V26.1545C13.4484 28.3061 10.8484 29.5617 8.46505 30.1046C6.50681 30.5507 4.70603 30.513 3.06115 30.1058ZM2.44881 29.0973C1.84748 28.0357 1.34282 26.9122 0.946809 25.7387C3.08981 26.7186 5.54288 27.0543 8.31049 26.4238C10.7373 25.871 13.3887 24.5793 16.2704 22.3552V25.2611C13.3831 27.5253 10.7644 28.806 8.40617 29.3432C6.21379 29.8427 4.23095 29.7031 2.44881 29.0973ZM0.0486701 21.6862C0.163166 22.7125 0.357315 23.7147 0.624795 24.6866C2.81342 25.8649 5.34886 26.3237 8.25161 25.6625C10.6518 25.1157 13.3219 23.7987 16.2704 21.4584V21.1714C16.2704 20.9663 16.1041 20.8 15.8989 20.8H12.9586C11.2692 21.7663 9.66857 22.3984 8.15527 22.7431C5.06231 23.4477 2.36219 22.9456 0.0486701 21.6862ZM21.9348 13.3714C26.0017 9.63661 29.8352 7.25426 33.3697 5.86677C34.0639 6.5766 34.7043 7.33922 35.2844 8.14806C32.2063 9.08551 28.8976 10.7493 25.4049 13.3714H21.9348ZM35.7299 8.7964C32.8932 9.61458 29.8395 11.0707 26.6065 13.3714H29.6418C29.8469 13.3714 30.0132 13.5377 30.0132 13.7429V14.153C32.5177 12.7728 34.9062 11.8795 37.1587 11.3736C36.7466 10.4758 36.2682 9.61461 35.7299 8.7964ZM30.0132 14.98V17.921C32.9695 16.2709 35.7654 15.2994 38.3682 14.8442C38.1354 13.8938 37.8329 12.9707 37.4665 12.0808C35.1352 12.576 32.6431 13.5005 30.0132 14.98ZM23.6989 26.1536V23.2611C24.7579 22.3515 25.8001 21.5334 26.8244 20.8H29.6418C29.8469 20.8 30.0132 20.6337 30.0132 20.4286V18.7498C33.0475 17.0208 35.8998 16.0308 38.535 15.5882C38.7255 16.5238 38.8491 17.4837 38.9004 18.4628C34.3722 19.1743 29.2465 21.4467 23.6989 26.1536ZM23.6989 22.3392C24.3478 21.7933 24.9908 21.2807 25.6277 20.8H24.0704C23.8652 20.8 23.6989 20.9663 23.6989 21.1714V22.3392ZM23.6989 27.0783C29.2975 22.2291 34.4319 19.9347 38.9257 19.2312C38.9269 19.3206 38.9275 19.4103 38.9275 19.5C38.9275 20.4144 38.8646 21.3141 38.7428 22.195C34.2494 22.9679 29.1786 25.279 23.6989 29.9666V27.0783ZM16.2704 37.5488C15.8167 37.8816 15.3689 38.1911 14.927 38.4781C15.3691 38.5825 15.8171 38.672 16.2704 38.7457V37.5488Z" fill="#C4C4C4"/>
<path fill-rule="evenodd" clip-rule="evenodd" d="M3.48557 8.26755C2.92136 9.06686 2.41574 9.91048 1.97497 10.7922C3.67751 11.3132 5.55907 11.4106 7.62707 10.9396C10.9586 10.1806 14.8099 7.9379 19.204 3.53439C20.398 2.33783 21.575 1.25541 22.7336 0.279123C21.8038 0.120316 20.8514 0.027349 19.8816 0.00518799C19.7495 0.135115 19.6172 0.266473 19.4847 0.399275C15.018 4.87554 11.0383 7.22063 7.52851 8.02018C6.09691 8.3463 4.74947 8.4139 3.48557 8.26755ZM18.8927 0.00719653C12.8527 0.16984 7.49785 3.07898 4.03175 7.53104C5.11496 7.61537 6.26042 7.53429 7.46963 7.25882C10.7622 6.50877 14.5625 4.3094 18.8927 0.00719653ZM0.733184 13.9347C0.979811 13.105 1.28017 12.2985 1.63022 11.5191C3.44791 12.0907 5.46571 12.2067 7.68595 11.7009C11.1958 10.9014 15.1755 8.55627 19.6421 4.08C20.9945 2.72479 22.3228 1.51993 23.625 0.452895C24.576 0.661534 25.5011 0.939591 26.3946 1.28149C24.1277 2.8352 21.7781 4.79094 19.3591 7.21512C16.4057 10.1749 13.6975 12.1585 11.2275 13.3714H10.3275C10.1223 13.3714 9.95605 13.5377 9.95605 13.7429V13.9372C9.20823 14.2349 8.48368 14.4605 7.78218 14.6203C5.1314 15.2241 2.78695 14.8939 0.733184 13.9347ZM0.51881 14.7153C0.315724 15.5204 0.162706 16.3454 0.0632597 17.1868C2.30807 18.4667 4.92587 18.9876 7.93962 18.301C8.59178 18.1525 9.26387 17.947 9.95605 17.6797V14.7302C9.23297 15.0095 8.52801 15.2252 7.84106 15.3816C5.09127 16.0081 2.65198 15.6807 0.51881 14.7153ZM12.7609 13.3714L16.8423 13.3714C17.7103 12.6358 18.6017 11.8127 19.5165 10.8959C23.1084 7.29622 26.5474 4.72944 29.7898 2.9781C28.9626 2.45823 28.0937 1.99876 27.1891 1.60586C24.8209 3.17723 22.3518 5.20075 19.7973 7.76074C17.3007 10.2627 14.9562 12.0988 12.7609 13.3714ZM-0.0725098 19.5C-0.0725098 19.0133 -0.0546822 18.5308 -0.0196446 18.0531C2.27416 19.2774 4.94487 19.758 7.99849 19.0624C8.6355 18.9173 9.28798 18.7212 9.95605 18.4708V20.4286C9.95605 20.6337 10.1223 20.8 10.3275 20.8H11.4037C10.2491 21.3556 9.14689 21.7425 8.09639 21.9818C4.96774 22.6945 2.26581 22.106 -0.0350965 20.7179C-0.0599165 20.3151 -0.0725098 19.909 -0.0725098 19.5ZM20.9105 13.3714H17.9128C18.5818 12.7779 19.2624 12.1353 19.9547 11.4415C23.6584 7.72981 27.1826 5.14589 30.4802 3.43269C31.2994 3.99732 32.0733 4.62298 32.7954 5.3031C29.1031 6.82215 25.1174 9.3916 20.9105 13.3714ZM23.6989 38.5307C28.173 37.5309 32.0668 34.9937 34.797 31.5026C31.3643 32.796 27.6447 35.0271 23.6989 38.5289V38.5307ZM23.6989 37.5959C27.9218 33.9244 31.9051 31.6658 35.5722 30.4395C36.3119 29.35 36.9442 28.1817 37.4539 26.9498C33.3154 27.9569 28.6891 30.3191 23.6989 34.7128V37.5959ZM23.6989 33.7826V30.894C29.1654 26.1203 34.1923 23.7834 38.6161 22.99C38.423 24.0586 38.1428 25.097 37.7832 26.0974C33.5285 27.0536 28.7889 29.3923 23.6989 33.7826ZM16.2704 33.7535V36.6655C15.4858 37.2579 14.7213 37.777 13.977 38.228C12.8157 37.8906 11.6991 37.4482 10.6382 36.9116C12.4055 36.2619 14.2822 35.231 16.2704 33.7535ZM16.2704 32.8669C13.9155 34.6675 11.7416 35.8107 9.74403 36.4296C8.57781 35.7611 7.48725 34.9755 6.48838 34.089C7.17768 34.0516 7.88898 33.9524 8.62237 33.7853C10.9613 33.2525 13.509 32.0333 16.2704 29.9544V32.8669ZM3.06115 30.1058C3.8174 31.2704 4.69458 32.3492 5.6749 33.3245C6.59415 33.3479 7.55673 33.2533 8.5635 33.024C10.8788 32.4965 13.4452 31.2524 16.2704 29.0644V26.1545C13.4484 28.3061 10.8484 29.5617 8.46505 30.1046C6.50681 30.5507 4.70603 30.513 3.06115 30.1058ZM2.44881 29.0973C1.84748 28.0357 1.34282 26.9122 0.946809 25.7387C3.08981 26.7186 5.54288 27.0543 8.31049 26.4238C10.7373 25.871 13.3887 24.5793 16.2704 22.3552V25.2611C13.3831 27.5253 10.7644 28.806 8.40617 29.3432C6.21379 29.8427 4.23095 29.7031 2.44881 29.0973ZM0.0486701 21.6862C0.163166 22.7125 0.357315 23.7147 0.624795 24.6866C2.81342 25.8649 5.34886 26.3237 8.25161 25.6625C10.6518 25.1157 13.3219 23.7987 16.2704 21.4584V21.1714C16.2704 20.9663 16.1041 20.8 15.8989 20.8H12.9586C11.2692 21.7663 9.66857 22.3984 8.15527 22.7431C5.06231 23.4477 2.36219 22.9456 0.0486701 21.6862ZM21.9348 13.3714C26.0017 9.63661 29.8352 7.25426 33.3697 5.86677C34.0639 6.5766 34.7043 7.33922 35.2844 8.14806C32.2063 9.08551 28.8976 10.7493 25.4049 13.3714H21.9348ZM35.7299 8.7964C32.8932 9.61458 29.8395 11.0707 26.6065 13.3714H29.6418C29.8469 13.3714 30.0132 13.5377 30.0132 13.7429V14.153C32.5177 12.7728 34.9062 11.8795 37.1587 11.3736C36.7466 10.4758 36.2682 9.61461 35.7299 8.7964ZM30.0132 14.98V17.921C32.9695 16.2709 35.7654 15.2994 38.3682 14.8442C38.1354 13.8938 37.8329 12.9707 37.4665 12.0808C35.1352 12.576 32.6431 13.5005 30.0132 14.98ZM23.6989 26.1536V23.2611C24.7579 22.3515 25.8001 21.5334 26.8244 20.8H29.6418C29.8469 20.8 30.0132 20.6337 30.0132 20.4286V18.7498C33.0475 17.0208 35.8998 16.0308 38.535 15.5882C38.7255 16.5238 38.8491 17.4837 38.9004 18.4628C34.3722 19.1743 29.2465 21.4467 23.6989 26.1536ZM23.6989 22.3392C24.3478 21.7933 24.9908 21.2807 25.6277 20.8H24.0704C23.8652 20.8 23.6989 20.9663 23.6989 21.1714V22.3392ZM23.6989 27.0783C29.2975 22.2291 34.4319 19.9347 38.9257 19.2312C38.9269 19.3206 38.9275 19.4103 38.9275 19.5C38.9275 20.4144 38.8646 21.3141 38.7428 22.195C34.2494 22.9679 29.1786 25.279 23.6989 29.9666V27.0783ZM16.2704 37.5488C15.8167 37.8816 15.3689 38.1911 14.927 38.4781C15.3691 38.5825 15.8171 38.672 16.2704 38.7457V37.5488Z" fill="url(#paint0_linear_1_2768)"/>
</g>
<defs>
<linearGradient id="paint0_linear_1_2768" x1="16.0846" y1="4.82857" x2="35.9495" y2="36.3212" gradientUnits="userSpaceOnUse">
<stop offset="0.0263039" stop-color="#8D33FF"/>
<stop offset="0.957096" stop-color="#0083FD"/>
</linearGradient>
<clipPath id="clip0_1_2768">
<rect width="39" height="39" rx="19.5" fill="white"/>
</clipPath>
</defs>
</svg>
